<svg xmlns="http://www.w3.org/2000/svg" width="360" height="144" fill="none" viewBox="0 0 360 144"><g clip-path="url(#clip0_1864_2018)"><circle cx="190.902" cy="-20.298" r="23.924" fill="#F4FAF4"/><circle cx="190.902" cy="128.034" r="23.924" fill="#FAFCFA"/><circle cx="324.879" cy="128.034" r="23.924" fill="#FFFAFF"/><circle cx="123.913" cy="151.958" r="23.924" fill="#FFF7FF"/><circle cx="56.925" cy="-20.298" r="23.924" fill="#FAFCFA"/><circle cx="123.913" cy="3.626" r="23.924" fill="#FFFAFF"/><circle cx="257.891" cy="3.626" r="23.924" fill="#F7FBF7"/><circle cx="257.891" cy="151.958" r="23.924" fill="#FFF7FF"/><circle cx="326.075" cy="-20.298" r="23.924" fill="#FFF7FF"/><circle cx="324.879" cy="51.475" r="23.924" fill="#F4FAF4"/><rect width="43.662" height="43.662" x="236.059" y="55.961" stroke="#93F" stroke-width=".598"/><path fill="#C994FF" d="M241.143 94.2855H270.296L261.416 82.5774L252.851 93.4212L247.194 86.5063L241.143 94.2855Z"/><circle cx="271.498" cy="72.26" r="3.14" fill="#C994FF"/><path stroke="#93F" stroke-width=".598" d="M310.321 -2.69691L341.078 -39.3514M310.321 -2.69691L309.584 -11.1233M310.321 -2.69691L318.748 -3.43412M341.078 -39.3514L332.652 -38.6142M341.078 -39.3514L341.815 -30.925"/><path fill="#3C0" fill-rule="evenodd" d="M181.93 113.081V135.809V136.408H182.528H205.257V135.809H182.528V113.081H181.93Z" clip-rule="evenodd"/><path fill="#3C0" fill-rule="evenodd" d="M182.528 118.464L176.547 118.464L176.547 119.062L182.528 119.062V118.464ZM183.725 119.062V118.464L199.276 118.464L199.874 118.464V119.062L199.874 134.613H199.276L199.276 119.062L183.725 119.062ZM199.276 135.809V141.791H199.874V135.809H199.276Z" clip-rule="evenodd"/><line x1="252.121" x2="258.042" y1="17.534" y2="11.613" stroke="#3C0" stroke-width=".598"/><line x1="257.619" x2="263.54" y1="11.613" y2="17.534" stroke="#3C0" stroke-width=".598"/><line x1="257.831" x2="257.831" y1="22.826" y2="11.829" stroke="#3C0" stroke-width=".598"/><line x1="244.732" x2="270.451" y1="1.533" y2="1.533" stroke="#3C0" stroke-width=".598"/><line x1="244.732" x2="270.451" y1="6.318" y2="6.318" stroke="#3C0" stroke-width=".598"/><line x1="129.595" x2="129.595" y1="17.383" y2="9.009" stroke="#93F" stroke-width=".598"/><line x1="129.296" x2="137.67" y1="9.308" y2="9.308" stroke="#93F" stroke-width=".598"/><line x1="137.375" x2="129.599" y1="17.087" y2="9.311" stroke="#93F" stroke-width=".598"/><line x2="8.374" y1="-.299" y2="-.299" stroke="#93F" stroke-width=".598" transform="matrix(-1.31134e-07 -1 -1 1.31134e-07 117.932 17.383)"/><line x2="8.374" y1="-.299" y2="-.299" stroke="#93F" stroke-width=".598" transform="matrix(-1 1.74846e-07 1.74846e-07 1 118.53 9.60754)"/><line x2="10.996" y1="-.299" y2="-.299" stroke="#93F" stroke-width=".598" transform="matrix(0.707107 -0.707107 -0.707107 -0.707107 110.24 16.8751)"/><line x1="42.934" x2="42.934" y1="118.561" y2="109.277" stroke="#3C0" stroke-width=".598"/><line x1="42.57" x2="51.854" y1="109.641" y2="109.641" stroke="#3C0" stroke-width=".598"/><line x1="51.549" x2="42.928" y1="118.209" y2="109.589" stroke="#3C0" stroke-width=".598"/><line x2="9.284" y1="-.299" y2="-.299" stroke="#3C0" stroke-width=".598" transform="matrix(1.31134e-07 -1 -1 -1.31134e-07 72.4105 118.561)"/><line x2="9.284" y1="-.299" y2="-.299" stroke="#3C0" stroke-width=".598" transform="matrix(-1 -8.74228e-08 -8.74228e-08 1 73.0736 109.94)"/><line x2="12.191" y1="-.299" y2="-.299" stroke="#3C0" stroke-width=".598" transform="matrix(0.707107 -0.707107 -0.707107 -0.707107 63.8828 117.998)"/><line x1="72.71" x2="72.71" y1="130.497" y2="139.781" stroke="#3C0" stroke-width=".598"/><line x1="73.074" x2="63.79" y1="139.417" y2="139.417" stroke="#3C0" stroke-width=".598"/><line x1="64.094" x2="72.715" y1="130.849" y2="139.47" stroke="#3C0" stroke-width=".598"/><line x2="9.284" y1="-.299" y2="-.299" stroke="#3C0" stroke-width=".598" transform="matrix(-4.37113e-08 1 1 4.37113e-08 43.2329 130.497)"/><line x2="9.284" y1="-.299" y2="-.299" stroke="#3C0" stroke-width=".598" transform="matrix(1 0 0 -1 42.5698 139.118)"/><line x2="12.191" y1="-.299" y2="-.299" stroke="#3C0" stroke-width=".598" transform="matrix(-0.707107 0.707107 0.707107 0.707107 51.7606 131.061)"/><path stroke="#3C0" stroke-width=".598" d="M314.711 56.3865V61.8734H335.091V56.3865"/><line x1="325.2" x2="325.2" y1="40.709" y2="56.23" stroke="#3C0" stroke-width=".598"/><line x1="325.078" x2="330.066" y1="56.405" y2="51.417" stroke="#3C0" stroke-width=".598"/><line x1="320.512" x2="325.501" y1="51.417" y2="56.405" stroke="#3C0" stroke-width=".598"/></g><defs><clipPath id="clip0_1864_2018"><rect width="360" height="144" fill="#fff"/></clipPath></defs></svg>