<svg xmlns="http://www.w3.org/2000/svg" width="360" height="144" fill="none" viewBox="0 0 360 144"><g clip-path="url(#clip0_1864_2072)"><path fill="#3C0" d="M50 34.15L39.8 23.95L50.05 13.75L50.8 14.55L41.4 23.95L50.8 33.35L50 34.15ZM65.9501 34.2L65.2001 33.4L74.6 24L65.2001 14.55L66 13.75L76.2001 23.95L65.9501 34.2Z"/><mask id="path-2-inside-1_1864_2072" fill="#fff"><path d="M95 14H422V29H95V14Z"/></mask><path fill="#6CF" d="M422 28H95V30H422V28Z" mask="url(#path-2-inside-1_1864_2072)"/><rect width="42.886" height="7.624" x="128" y="63" fill="#CEF"/><rect width="50.51" height="7.624" x="141.819" y="78.624" fill="#CEF"/><rect width="102" height="8" x="157" y="94" fill="#CEF"/><rect width="119" height="8" x="157" y="110" fill="#CEF"/><rect width="326" height="269" x="95.5" y="14.5" stroke="#6CF"/><rect width="284" height="78" x="116.5" y="51.5" stroke="#F6C" stroke-dasharray="1.34 1.34"/><circle cx="106.358" cy="22.017" r="3.341" fill="#FDE"/><circle cx="118.384" cy="22.017" r="3.341" fill="#FED"/><circle cx="130.41" cy="22.017" r="3.341" fill="#DED"/></g><defs><clipPath id="clip0_1864_2072"><rect width="360" height="144" fill="#fff"/></clipPath></defs></svg>